<svg t="1713603344661" class="icon" viewBox="0 0 1024 1024" version="1.1" xmlns="http://www.w3.org/2000/svg" p-id="1594" width="200" height="200"><path d="M509.611092 956.608124c-245.583255 0-445.370487-199.786209-445.370487-445.369464 0-245.569952 199.787232-445.363324 445.370487-445.363324 245.582231 0 445.381743 199.794395 445.381743 445.363324C954.992835 756.820891 755.193323 956.608124 509.611092 956.608124zM509.611092 144.469346c-202.24419 0-366.775454 164.526147-366.775454 366.769314s164.531264 366.775454 366.775454 366.775454c202.243167 0 366.788757-164.532287 366.788757-366.775454S711.854259 144.469346 509.611092 144.469346z" fill="#1A1A1A" p-id="1595"></path><path d="M716.22787 494.007207c-28.756951 0-55.774281-11.205203-76.098165-31.531134-20.314675-20.326954-31.508621-47.344285-31.508621-76.087932 0-28.756951 11.193947-55.773258 31.519878-76.100212 15.350616-15.325034 40.231283-15.337313 55.582923 0.013303 15.33629 15.350616 15.33629 40.231283-0.014326 55.581899-5.486968 5.475711-8.493441 12.753465-8.493441 20.506033 0 7.739265 3.018753 15.030321 8.493441 20.518313 10.962679 10.962679 30.048363 10.962679 41.037648 0l96.196922-96.195899c15.349593-15.350616 40.219004-15.350616 55.56962 0 15.350616 15.338337 15.350616 40.23026 0 55.568596l-96.197946 96.196922C771.989871 482.802004 744.972541 494.007207 716.22787 494.007207z" fill="#1A1A1A" p-id="1596"></path><path d="M521.468141 493.994927c-28.741601 0-55.773258-11.192923-76.100212-31.519878-41.943274-41.971927-41.933041-110.22952 0.013303-152.174841 15.350616-15.350616 40.219004-15.350616 55.568596 0 15.350616 15.337313 15.350616 40.231283 0 55.56962-11.308557 11.307533-11.308557 29.715789 0.014326 41.036625 10.949376 10.9504 30.060643 10.962679 41.037648-0.013303L677.493683 271.412526c15.35164-15.350616 40.21798-15.350616 55.568596 0 15.35164 15.337313 15.35164 40.231283 0 55.568596L597.569376 462.476073C577.243445 482.802004 550.213835 493.994927 521.468141 493.994927z" fill="#1A1A1A" p-id="1597"></path><path d="M322.384943 493.994927c-28.755927 0-55.773258-11.192923-76.100212-31.519878-20.313651-20.326954-31.506575-47.344285-31.506575-76.087932 0-28.756951 11.192923-55.773258 31.519878-76.100212 15.350616-15.325034 40.231283-15.337313 55.580876 0.013303 15.338337 15.350616 15.338337 40.231283-0.011256 55.581899-5.489014 5.475711-8.495488 12.753465-8.495488 20.506033 0 7.739265 3.019777 15.030321 8.495488 20.518313 10.974959 10.962679 30.060643 10.962679 41.036625 0l135.492904-135.492904c15.35164-15.350616 40.219004-15.350616 55.568596 0 15.35164 15.337313 15.35164 40.231283 0 55.568596L398.472875 462.476073C378.145921 482.802004 351.129614 493.994927 322.384943 493.994927z" fill="#1A1A1A" p-id="1598"></path><path d="M386.320091 590.498842c0 25.942859-21.042245 46.971801-46.997384 46.971801-25.941835 0-46.985104-21.029966-46.985104-46.971801 0-25.969465 21.042245-46.998407 46.985104-46.998407C365.276822 543.500435 386.320091 564.529377 386.320091 590.498842z" fill="#1A1A1A" p-id="1599"></path><path d="M726.897883 590.498842c0 25.942859-21.043269 46.971801-46.998407 46.971801-25.942859 0-46.985104-21.029966-46.985104-46.971801 0-25.969465 21.042245-46.998407 46.985104-46.998407C705.853591 543.500435 726.897883 564.529377 726.897883 590.498842z" fill="#1A1A1A" p-id="1600"></path><path d="M509.611092 808.655444c-50.107211 0-90.87573-37.443797-90.87573-83.454714l0-23.704888c0-21.708418 17.588587-39.295981 39.298028-39.295981 21.707394 0 39.297005 17.588587 39.297005 39.295981l0 23.704888c0.48607 1.174756 4.925173 4.859681 12.280698 4.859681 7.366781 0 11.806907-3.684926 12.331863-5.155417l-0.038886-23.409153c0-21.708418 17.588587-39.295981 39.297005-39.295981s39.298028 17.588587 39.298028 39.295981l0 23.704888C600.499102 771.211647 559.730583 808.655444 509.611092 808.655444z" fill="#1A1A1A" p-id="1601"></path></svg>